<svg xmlns="http://www.w3.org/2000/svg" xmlns:xlink="http://www.w3.org/1999/xlink" width="500" zoomAndPan="magnify" viewBox="0 0 375 374.999991" height="500" preserveAspectRatio="xMidYMid meet" version="1.0"><defs><g/></defs><path fill="#6d431b" d="M 265.605469 156.097656 C 275.011719 172.4375 263.519531 196.683594 239.941406 210.257812 C 216.363281 223.828125 189.621094 221.59375 180.21875 205.257812 C 170.8125 188.917969 182.304688 164.675781 205.886719 151.101562 C 229.464844 137.527344 256.203125 139.761719 265.605469 156.097656 Z M 227.234375 186.265625 C 242.691406 181.675781 257.054688 176.441406 261.429688 160.945312 C 264.105469 151.472656 256.664062 157.820312 253.179688 160.636719 C 243.628906 168.351562 230.277344 170.75 217.964844 174 C 202.507812 178.589844 188.144531 183.824219 183.769531 199.324219 C 181.09375 208.792969 188.535156 202.445312 192.019531 199.628906 C 201.570312 191.914062 214.917969 189.515625 227.234375 186.265625 Z M 227.234375 186.265625 " fill-opacity="1" fill-rule="evenodd"/><path fill="#6d431b" d="M 199.449219 67.304688 C 217.664062 62.453125 238.109375 79.824219 245.121094 106.113281 C 248.015625 116.980469 248.160156 127.660156 246.050781 136.808594 C 237.902344 135.765625 228.761719 136.640625 219.507812 139.507812 C 218.035156 130.746094 218.621094 121.261719 218.660156 112.179688 C 218.226562 96.058594 216.886719 80.832031 203.046875 72.597656 C 194.59375 67.5625 198.800781 76.394531 200.617188 80.480469 C 205.597656 91.707031 204.460938 105.222656 204.414062 117.957031 C 204.664062 127.316406 205.222656 136.367188 208.347656 143.933594 C 206.65625 144.757812 204.972656 145.648438 203.300781 146.609375 C 200.34375 148.320312 197.546875 150.160156 194.933594 152.132812 C 187.960938 145.148438 182.257812 135.289062 179.164062 123.703125 C 172.15625 97.414062 181.238281 72.164062 199.449219 67.304688 Z M 199.449219 67.304688 " fill-opacity="1" fill-rule="evenodd"/><path fill="#6d431b" d="M 118.21875 206.261719 C 134.488281 215.78125 158.8125 204.457031 172.550781 180.976562 C 186.292969 157.492188 184.238281 130.738281 167.96875 121.21875 C 151.699219 111.703125 127.375 123.023438 113.636719 146.507812 C 99.898438 169.992188 101.945312 196.746094 118.21875 206.261719 Z M 148.652344 168.101562 C 143.953125 183.527344 138.617188 197.851562 123.09375 202.117188 C 113.601562 204.726562 120.003906 197.328125 122.839844 193.867188 C 130.625 184.371094 133.117188 171.039062 136.453125 158.75 C 141.148438 143.320312 146.484375 128.996094 162.007812 124.730469 C 171.5 122.121094 165.097656 129.519531 162.261719 132.976562 C 154.480469 142.476562 151.984375 155.808594 148.652344 168.101562 Z M 148.652344 168.101562 " fill-opacity="1" fill-rule="evenodd"/><g fill="#d9d9d9" fill-opacity="1"><g transform="translate(80.253934, 273.880517)"><g><path d="M 18.765625 0 C 20.769531 0 22.65625 -0.347656 24.46875 -1 C 27.898438 -2.003906 31.597656 -1.773438 31.710938 -0.347656 L 32.058594 -0.347656 L 32.058594 -10.710938 C 32.136719 -13.140625 33.792969 -14.605469 36.453125 -14.605469 L 36.453125 -14.949219 L 19.84375 -14.949219 L 19.84375 -14.605469 C 22.347656 -14.605469 24.160156 -13.21875 24.199219 -10.671875 L 24.199219 -1.617188 C 22.773438 -1 20.308594 -0.460938 18.765625 -0.460938 C 16.375 -0.460938 9.789062 -2.042969 9.75 -16.878906 C 9.789062 -31.710938 16.375 -33.292969 18.765625 -33.292969 C 19.496094 -33.292969 21.191406 -33.136719 23.195312 -32.523438 C 27.398438 -31.097656 29.671875 -28.398438 29.785156 -24.3125 L 30.132812 -24.3125 L 30.132812 -33.40625 L 29.785156 -33.40625 C 29.671875 -31.945312 28.089844 -31.675781 24.46875 -32.753906 C 22.65625 -33.40625 20.769531 -33.753906 18.765625 -33.753906 C 14.335938 -33.753906 10.171875 -32.019531 6.972656 -28.9375 C 3.890625 -25.816406 2.15625 -22.039062 1.925781 -17.878906 L 1.925781 -15.953125 C 2.425781 -7.011719 9.863281 0 18.765625 0 Z M 18.765625 0 "/></g></g></g><g fill="#d9d9d9" fill-opacity="1"><g transform="translate(118.63269, 273.880517)"><g><path d="M 1.925781 -0.347656 L 1.925781 0 L 18.574219 0 L 18.574219 -0.347656 C 15.683594 -0.347656 14.449219 -1.617188 14.449219 -4.355469 L 14.449219 -15.875 L 18.84375 -15.875 C 21.617188 -15.875 20.808594 -14.140625 23.121094 -8.207031 C 25.507812 -2.082031 28.246094 0 31.132812 0 L 38.070312 0 L 38.070312 -0.347656 C 34.601562 -0.347656 32.945312 -2.003906 30.980469 -8.207031 C 29.09375 -14.140625 27.28125 -15.875 21.847656 -16.183594 C 26.511719 -16.953125 30.710938 -19.535156 30.710938 -24.660156 C 30.710938 -30.863281 24.855469 -33.214844 18.613281 -33.214844 L 1.925781 -33.214844 L 1.925781 -32.867188 L 2.390625 -32.867188 C 3.546875 -32.832031 6.472656 -32.328125 6.472656 -28.785156 L 6.472656 -4.429688 C 6.472656 -1.617188 4.816406 -0.347656 1.925781 -0.347656 Z M 18.613281 -16.261719 L 14.449219 -16.261719 L 14.449219 -32.867188 L 18.613281 -32.867188 C 21.386719 -32.867188 22.851562 -29.324219 22.851562 -24.660156 C 22.851562 -19.960938 21.386719 -16.261719 18.613281 -16.261719 Z M 18.613281 -16.261719 "/></g></g></g><g fill="#d9d9d9" fill-opacity="1"><g transform="translate(158.629824, 273.880517)"><g><path d="M 1.925781 -0.347656 L 1.925781 0 L 29.824219 0 L 32.367188 -8.707031 L 32.019531 -8.707031 C 30.171875 -3.121094 25.625 -0.347656 18.996094 -0.347656 C 16.183594 -0.347656 14.449219 -1.886719 14.449219 -4.429688 L 14.449219 -17.261719 L 20.230469 -17.261719 C 23.773438 -17.148438 24.121094 -13.949219 24.121094 -13.0625 L 24.121094 -12.871094 L 24.46875 -12.871094 L 24.46875 -21.964844 L 24.121094 -21.964844 L 24.121094 -21.769531 C 24.121094 -20.886719 23.773438 -17.6875 20.230469 -17.609375 L 14.449219 -17.609375 L 14.488281 -32.867188 L 17.261719 -32.867188 C 26.585938 -32.867188 28.589844 -27.164062 28.976562 -25.199219 L 29.09375 -24.507812 L 29.402344 -24.660156 L 28.089844 -33.214844 L 1.925781 -33.214844 L 1.925781 -32.867188 C 4.738281 -32.867188 6.472656 -31.328125 6.472656 -28.785156 L 6.472656 -4.429688 C 6.472656 -1.886719 4.738281 -0.347656 1.925781 -0.347656 Z M 1.925781 -0.347656 "/></g></g></g><g fill="#d9d9d9" fill-opacity="1"><g transform="translate(192.924097, 273.880517)"><g><path d="M 18.804688 0 C 20.769531 0 22.695312 -0.347656 24.46875 -1 C 27.976562 -2.042969 29.671875 -1.886719 29.824219 -0.347656 L 30.171875 -0.347656 L 30.171875 -11.753906 L 29.824219 -11.753906 L 29.824219 -11.214844 C 29.707031 -4.585938 25.277344 -0.347656 18.804688 -0.347656 C 16.414062 -0.347656 9.824219 -2.042969 9.789062 -16.878906 C 9.824219 -31.710938 16.414062 -33.40625 18.804688 -33.40625 C 24.3125 -33.40625 29.59375 -29.980469 29.824219 -24.3125 L 30.171875 -24.3125 L 30.171875 -33.40625 L 29.824219 -33.40625 C 29.671875 -31.945312 28.128906 -31.675781 24.46875 -32.753906 C 22.695312 -33.40625 20.769531 -33.753906 18.804688 -33.753906 C 14.296875 -33.753906 10.058594 -31.980469 6.898438 -28.824219 L 6.78125 -28.707031 C 4.007812 -25.894531 2.195312 -22.078125 1.925781 -17.878906 L 1.925781 -15.953125 C 2.425781 -7.011719 9.863281 0 18.804688 0 Z M 18.804688 0 "/></g></g></g><g fill="#d9d9d9" fill-opacity="1"><g transform="translate(225.021996, 273.880517)"><g><path d="M 18.804688 0 C 20.769531 0 22.695312 -0.347656 24.46875 -1 C 27.976562 -2.042969 29.671875 -1.886719 29.824219 -0.347656 L 30.171875 -0.347656 L 30.171875 -11.753906 L 29.824219 -11.753906 L 29.824219 -11.214844 C 29.707031 -4.585938 25.277344 -0.347656 18.804688 -0.347656 C 16.414062 -0.347656 9.824219 -2.042969 9.789062 -16.878906 C 9.824219 -31.710938 16.414062 -33.40625 18.804688 -33.40625 C 24.3125 -33.40625 29.59375 -29.980469 29.824219 -24.3125 L 30.171875 -24.3125 L 30.171875 -33.40625 L 29.824219 -33.40625 C 29.671875 -31.945312 28.128906 -31.675781 24.46875 -32.753906 C 22.695312 -33.40625 20.769531 -33.753906 18.804688 -33.753906 C 14.296875 -33.753906 10.058594 -31.980469 6.898438 -28.824219 L 6.78125 -28.707031 C 4.007812 -25.894531 2.195312 -22.078125 1.925781 -17.878906 L 1.925781 -15.953125 C 2.425781 -7.011719 9.863281 0 18.804688 0 Z M 18.804688 0 "/></g></g></g><g fill="#d9d9d9" fill-opacity="1"><g transform="translate(257.119895, 273.880517)"><g><path d="M 18.804688 0 C 28.128906 0 35.679688 -7.550781 35.679688 -16.878906 C 35.679688 -26.164062 28.089844 -33.753906 18.804688 -33.753906 C 9.519531 -33.753906 1.925781 -26.164062 1.925781 -16.878906 C 1.925781 -7.707031 9.402344 0 18.804688 0 Z M 18.804688 -0.460938 C 16.414062 -0.460938 9.789062 -1.695312 9.789062 -16.878906 C 9.824219 -31.710938 16.414062 -33.292969 18.804688 -33.292969 C 21.230469 -33.292969 27.820312 -31.710938 27.820312 -16.878906 C 27.820312 -1.695312 21.230469 -0.460938 18.804688 -0.460938 Z M 18.804688 -0.460938 "/></g></g></g><g fill="#6d431b" fill-opacity="1"><g transform="translate(112.785608, 306.211811)"><g><path d="M 9.4375 -16.4375 C 11.832031 -16.4375 13.726562 -15.835938 15.125 -14.640625 C 16.519531 -13.441406 17.21875 -11.734375 17.21875 -9.515625 L 12.265625 -9.515625 C 12.265625 -10.453125 12.015625 -11.191406 11.515625 -11.734375 C 11.023438 -12.285156 10.328125 -12.5625 9.421875 -12.5625 C 8.367188 -12.5625 7.59375 -12.234375 7.09375 -11.578125 C 6.601562 -10.921875 6.359375 -10.003906 6.359375 -8.828125 L 6.359375 -7.328125 C 6.359375 -6.171875 6.601562 -5.257812 7.09375 -4.59375 C 7.59375 -3.925781 8.351562 -3.59375 9.375 -3.59375 C 10.375 -3.59375 11.128906 -3.847656 11.640625 -4.359375 C 12.160156 -4.878906 12.421875 -5.609375 12.421875 -6.546875 L 17.21875 -6.546875 C 17.21875 -4.335938 16.539062 -2.644531 15.1875 -1.46875 C 13.832031 -0.300781 11.914062 0.28125 9.4375 0.28125 C 6.6875 0.28125 4.601562 -0.421875 3.1875 -1.828125 C 1.769531 -3.242188 1.0625 -5.328125 1.0625 -8.078125 C 1.0625 -10.835938 1.769531 -12.921875 3.1875 -14.328125 C 4.601562 -15.734375 6.6875 -16.4375 9.4375 -16.4375 Z M 9.4375 -16.4375 "/></g></g></g><g fill="#6d431b" fill-opacity="1"><g transform="translate(135.951286, 306.211811)"><g><path d="M 9.765625 -16.4375 C 12.554688 -16.4375 14.707031 -15.722656 16.21875 -14.296875 C 17.738281 -12.878906 18.5 -10.804688 18.5 -8.078125 C 18.5 -5.359375 17.738281 -3.285156 16.21875 -1.859375 C 14.707031 -0.429688 12.554688 0.28125 9.765625 0.28125 C 6.984375 0.28125 4.835938 -0.425781 3.328125 -1.84375 C 1.816406 -3.257812 1.0625 -5.335938 1.0625 -8.078125 C 1.0625 -10.816406 1.816406 -12.894531 3.328125 -14.3125 C 4.835938 -15.726562 6.984375 -16.4375 9.765625 -16.4375 Z M 9.765625 -12.5625 C 8.660156 -12.5625 7.816406 -12.222656 7.234375 -11.546875 C 6.648438 -10.878906 6.359375 -9.972656 6.359375 -8.828125 L 6.359375 -7.328125 C 6.359375 -6.179688 6.648438 -5.269531 7.234375 -4.59375 C 7.816406 -3.925781 8.660156 -3.59375 9.765625 -3.59375 C 10.878906 -3.59375 11.726562 -3.925781 12.3125 -4.59375 C 12.90625 -5.269531 13.203125 -6.179688 13.203125 -7.328125 L 13.203125 -8.828125 C 13.203125 -9.972656 12.90625 -10.878906 12.3125 -11.546875 C 11.726562 -12.222656 10.878906 -12.5625 9.765625 -12.5625 Z M 9.765625 -12.5625 "/></g></g></g><g fill="#6d431b" fill-opacity="1"><g transform="translate(160.407657, 306.211811)"><g><path d="M 1.734375 -16.15625 L 14.796875 -16.15625 L 14.796875 -12.28125 L 6.921875 -12.28125 L 6.921875 -9.515625 L 13.6875 -9.515625 L 13.6875 -5.796875 L 6.921875 -5.796875 L 6.921875 0 L 1.734375 0 Z M 1.734375 -16.15625 "/></g></g></g><g fill="#6d431b" fill-opacity="1"><g transform="translate(180.96846, 306.211811)"><g><path d="M 1.734375 -16.15625 L 14.796875 -16.15625 L 14.796875 -12.28125 L 6.921875 -12.28125 L 6.921875 -9.515625 L 13.6875 -9.515625 L 13.6875 -5.796875 L 6.921875 -5.796875 L 6.921875 0 L 1.734375 0 Z M 1.734375 -16.15625 "/></g></g></g><g fill="#6d431b" fill-opacity="1"><g transform="translate(201.529256, 306.211811)"><g><path d="M 1.734375 -16.15625 L 15.71875 -16.15625 L 15.71875 -12.28125 L 6.921875 -12.28125 L 6.921875 -10.046875 L 14.4375 -10.046875 L 14.4375 -6.34375 L 6.921875 -6.34375 L 6.921875 -3.875 L 15.875 -3.875 L 15.875 0 L 1.734375 0 Z M 1.734375 -16.15625 "/></g></g></g><g fill="#6d431b" fill-opacity="1"><g transform="translate(223.380758, 306.211811)"><g><path d="M 1.734375 -16.15625 L 15.71875 -16.15625 L 15.71875 -12.28125 L 6.921875 -12.28125 L 6.921875 -10.046875 L 14.4375 -10.046875 L 14.4375 -6.34375 L 6.921875 -6.34375 L 6.921875 -3.875 L 15.875 -3.875 L 15.875 0 L 1.734375 0 Z M 1.734375 -16.15625 "/></g></g></g><g fill="#6d431b" fill-opacity="1"><g transform="translate(245.232261, 306.211811)"><g><path d="M 8.53125 -16.4375 C 10.59375 -16.4375 12.285156 -16.015625 13.609375 -15.171875 C 14.941406 -14.335938 15.628906 -13.097656 15.671875 -11.453125 L 15.671875 -11.171875 L 10.796875 -11.171875 L 10.796875 -11.265625 C 10.796875 -11.742188 10.625 -12.140625 10.28125 -12.453125 C 9.9375 -12.765625 9.414062 -12.921875 8.71875 -12.921875 C 8.019531 -12.921875 7.488281 -12.816406 7.125 -12.609375 C 6.757812 -12.410156 6.578125 -12.160156 6.578125 -11.859375 C 6.578125 -11.429688 6.828125 -11.113281 7.328125 -10.90625 C 7.828125 -10.707031 8.632812 -10.5 9.75 -10.28125 C 11.039062 -10.019531 12.101562 -9.742188 12.9375 -9.453125 C 13.78125 -9.160156 14.515625 -8.6875 15.140625 -8.03125 C 15.773438 -7.375 16.097656 -6.484375 16.109375 -5.359375 C 16.109375 -3.441406 15.460938 -2.019531 14.171875 -1.09375 C 12.878906 -0.175781 11.15625 0.28125 9 0.28125 C 6.476562 0.28125 4.515625 -0.140625 3.109375 -0.984375 C 1.710938 -1.828125 1.015625 -3.320312 1.015625 -5.46875 L 5.921875 -5.46875 C 5.921875 -4.65625 6.128906 -4.109375 6.546875 -3.828125 C 6.972656 -3.554688 7.632812 -3.421875 8.53125 -3.421875 C 9.1875 -3.421875 9.726562 -3.488281 10.15625 -3.625 C 10.582031 -3.769531 10.796875 -4.066406 10.796875 -4.515625 C 10.796875 -4.898438 10.554688 -5.191406 10.078125 -5.390625 C 9.609375 -5.585938 8.832031 -5.796875 7.75 -6.015625 C 6.4375 -6.296875 5.347656 -6.585938 4.484375 -6.890625 C 3.617188 -7.191406 2.863281 -7.695312 2.21875 -8.40625 C 1.582031 -9.113281 1.265625 -10.066406 1.265625 -11.265625 C 1.265625 -13.035156 1.945312 -14.335938 3.3125 -15.171875 C 4.6875 -16.015625 6.425781 -16.4375 8.53125 -16.4375 Z M 8.53125 -16.4375 "/></g></g></g></svg>